# xmcd
# 
# Track frame offsets:
#     150
#     15275
#     33262
#     52675
#     74262
#     99880
#     103225
#     127865
#     149740
#     166242
#     189042
#     192030
# 
# Disc length: 3008
# 
# Revision: 80
# Processed by: cddbd v1.5.2PL0 Copyright (c) Steve Scherf et al.
# Submitted via: BonkEnc v1.0.8
# 
DISCID=8c0bbe0c
DTITLE=Oasis - (What's The Story) Morning Glory?
DYEAR=1995
DGENRE=Rock
TTITLE0=Hello
TTITLE1=Roll With It
TTITLE2=Wonderwall
TTITLE3=Don't Look Back In Anger
TTITLE4=Hey Now!
TTITLE5=(The Swamp Song)
TTITLE6=Some Might Say
TTITLE7=Cast No Shadow
TTITLE8=She's Electric
TTITLE9=Morning Glory
TTITLE10=(The Swamp Song)
TTITLE11=Champagne Supernova
EXTD=YEAR: 0
EXTT0=
EXTT1=
EXTT2=
EXTT3=
EXTT4=
EXTT5=
EXTT6=
EXTT7=
EXTT8=
EXTT9=
EXTT10=
EXTT11=
PLAYORDER=
